<svg xmlns="http://www.w3.org/2000/svg" viewBox="0 0 242.15 471.97"><title>wizard-spots</title><polygon points="185.53 9.85 187.03 12.88 190.37 13.37 187.95 15.73 188.52 19.07 185.53 17.49 182.53 19.07 183.1 15.73 180.68 13.37 184.03 12.88 185.53 9.85" style="fill:#ef4136"/><polygon points="200.85 62.27 203.74 68.13 210.2 69.07 205.53 73.63 206.63 80.06 200.85 77.02 195.07 80.06 196.17 73.63 191.5 69.07 197.96 68.13 200.85 62.27" style="fill:#1cbde2"/><polygon points="183.51 40.82 185.98 45.81 191.5 46.62 187.5 50.51 188.45 56 183.51 53.41 178.58 56 179.52 50.51 175.53 46.62 181.05 45.81 183.51 40.82" style="fill:#78529c"/><polygon points="214.55 23.51 218.08 30.66 225.97 31.8 220.26 37.37 221.61 45.23 214.55 41.52 207.49 45.23 208.84 37.37 203.13 31.8 211.02 30.66 214.55 23.51" style="fill:#8cc244"/><path d="M194.56,249.08c0-.1,0-0.2,0-0.3a22,22,0,0,0-6-14.46,2.45,2.45,0,0,0-4.07,2.55,22.19,22.19,0,0,1,1.24,5.47h0c1.16,9.44-3.25,7.23-3.25,7.23-11.61-6.76-20.69-19.08-31-21.95a2.47,2.47,0,0,1-1-.71,3,3,0,0,0-1.62-.69,2.61,2.61,0,0,1-.49-0.19L148.2,226a22.72,22.72,0,0,0-22.44,1.8h0l-0.64.46a8,8,0,0,1-9.46,0l-0.64-.46h0A22.72,22.72,0,0,0,92.56,226l-0.17.07a2.61,2.61,0,0,1-.49.19,3,3,0,0,0-1.62.69,4.5,4.5,0,0,1-1,.71c-10.83,6.07-19.68,17-31,21.95,0,0-4.42,2.21-3.25-7.23h0a22.19,22.19,0,0,1,1.24-5.47,2.45,2.45,0,0,0-4.07-2.55,22,22,0,0,0-6,14.46c0,0.1,0,.2,0,0.3a20.12,20.12,0,0,0,6,13.7,29.63,29.63,0,0,0,8.61,5.82l0,0.17a41,41,0,0,0,13.66,3.74,2,2,0,0,1,.16,3.91,38.69,38.69,0,0,1-12.74.47l2.67,20a2.81,2.81,0,0,0,0,.69l0.59,3.82h0l7,45.19a2.29,2.29,0,0,0,4.53.24l2.22-9.11a2.29,2.29,0,0,1,4.53.24l8.38,55.21a2.3,2.3,0,0,0,4.58,0l0.93-5.89a2.29,2.29,0,0,1,4.54-.17l16.27,73.11a2.28,2.28,0,0,0,4.51,0l16.27-73.11a2.29,2.29,0,0,1,4.54.17l0.93,5.89a2.3,2.3,0,0,0,4.58,0L157.33,338a2.29,2.29,0,0,1,4.53-.24l2.22,9.11a2.29,2.29,0,0,0,4.53-.24L175,305.44h0l1.21-7.84a2.81,2.81,0,0,0,0-1.06L178.7,277a38.56,38.56,0,0,1-13-.44,2,2,0,0,1,.16-3.91,41,41,0,0,0,13.88-3.85l0-.14a29.69,29.69,0,0,0,8.79-5.9A20.12,20.12,0,0,0,194.56,249.08Z" style="fill:#19305b"/><path d="M186.42,136.73a1.77,1.77,0,0,1-1.35-1.45C178.61,85.7,169.37,64,163.53,54.84c-2.74-4.83-8.86-18.08,3.56-22l0.25-.07a32.43,32.43,0,0,1,4.07-.56h0a62.43,62.43,0,0,1,8.73.42,1.73,1.73,0,0,0,1.73-2.68c-16-21.41-40.67-18.33-40.67-18.33-28.06,2.18-47.57,23.8-60.33,46a278.8,278.8,0,0,0-20,49.87l0,0.1v0c-3.35,11.16-5.73,21.18-7.35,28.91l-0.13,0-2.45,10.21a1.87,1.87,0,0,1-3.61-.08l-1.15-6.11a1.86,1.86,0,0,0-2.42-1.32C25.8,144.83,14.79,152.54,14.79,161c0,17.52,46.78,31.73,104.48,31.73S223.75,178.56,223.75,161C223.75,151.28,209.24,142.55,186.42,136.73ZM148.93,22h0c-25.71,2-43.58,21.8-55.28,42.11A255.41,255.41,0,0,0,75.3,109.77l0,0.09v0c-3.07,10.23-5.25,19.4-6.74,26.49l-0.07,0a102.47,102.47,0,0,0-1.54,10.37A1.39,1.39,0,0,1,65.55,148H60.42a1.4,1.4,0,0,1-1.37-1.68c1.16-5.78,2.48-10.45,2.48-10.45l0.54-2.26,0.12,0c1.49-7.09,3.67-16.26,6.74-26.49v0l0-.09A255.43,255.43,0,0,1,87.3,61.31C99,41,116.87,21.2,142.58,19.21a34.67,34.67,0,0,1,6.29,0A1.4,1.4,0,0,1,148.93,22Z" style="fill:#19305b"/><path d="M190.9,192.19s-6.64-5.83-13.83-7.41a50.11,50.11,0,0,0-11.1-1.41s-2.69.89-7.38,5.76c-3.64,3.78-4.68,6.35-5,7.32a11.26,11.26,0,0,0,.43,9.29l0,0.16a1.37,1.37,0,0,1-1.46,1.56c-5-.45-10.73-3.74-10.73-3.74a34.25,34.25,0,0,1,5.94-10c5.1-6.18,15.68-10.55,15.68-10.55a34.67,34.67,0,0,0-17.35,8.38C138.3,198.73,135.73,206,135.73,206s8.85,4.76,16.1,6.06c7.45,1.34,9.45.62,13.64-.21s8.77-4.13,9.72-9.06c0.56-2.87-.18-6.71-3.22-10.68-0.18-.65-0.15-1.44,1.73-1.32,6,0.36,12.11,4.12,12.11,4.12s-3.4,7.1-6.59,10.22c-6.71,6.57-9.49,7.28-9.49,7.28s3.75,2.14,11.84-4.8A27.58,27.58,0,0,0,190.9,192.19Z" style="fill:#19305b"/><path d="M49.43,192.19s6.64-5.83,13.83-7.41a50.11,50.11,0,0,1,11.1-1.41s2.69,0.89,7.38,5.76c3.64,3.78,4.68,6.35,5,7.32a11.26,11.26,0,0,1-.43,9.29l0,0.16a1.37,1.37,0,0,0,1.46,1.56c5-.45,10.73-3.74,10.73-3.74a34.25,34.25,0,0,0-5.94-10c-5.1-6.18-15.68-10.55-15.68-10.55a34.67,34.67,0,0,1,17.35,8.38C102,198.73,104.6,206,104.6,206s-8.85,4.76-16.1,6.06c-7.45,1.34-9.45.62-13.64-.21s-8.77-4.13-9.72-9.06c-0.56-2.87.18-6.71,3.22-10.68,0.18-.65.15-1.44-1.73-1.32-6,.36-12.11,4.12-12.11,4.12s3.4,7.1,6.59,10.22c6.71,6.57,9,8.13,9,8.13s-3.21,1.29-11.3-5.65A27.58,27.58,0,0,1,49.43,192.19Z" style="fill:#19305b"/></svg>