<svg id="Layer_1" data-name="Layer 1" xmlns="http://www.w3.org/2000/svg" viewBox="0 0 120.91 259"><title>wizard</title><polygon points="97.75 0 98.61 1.74 100.53 2.02 99.14 3.37 99.47 5.28 97.75 4.38 96.04 5.28 96.36 3.37 94.98 2.02 96.89 1.74 97.75 0" style="fill:#ef4136"/><polygon points="106.53 30.01 108.18 33.37 111.88 33.91 109.2 36.52 109.83 40.2 106.53 38.46 103.22 40.2 103.85 36.52 101.17 33.91 104.87 33.37 106.53 30.01" style="fill:#1cbde2"/><polygon points="96.6 17.73 98.01 20.59 101.17 21.05 98.88 23.28 99.42 26.42 96.6 24.94 93.77 26.42 94.31 23.28 92.03 21.05 95.19 20.59 96.6 17.73" style="fill:#78529c"/><polygon points="114.37 7.82 116.39 11.91 120.91 12.57 117.64 15.76 118.41 20.25 114.37 18.13 110.33 20.25 111.1 15.76 107.83 12.57 112.35 11.91 114.37 7.82" style="fill:#8cc244"/><path d="M225.35,388.64c0-.06,0-0.11,0-0.17a12.59,12.59,0,0,0-3.42-8.28,1.4,1.4,0,0,0-2.33,1.46,12.7,12.7,0,0,1,.71,3.13h0c0.67,5.4-1.86,4.14-1.86,4.14-6.64-3.87-11.85-10.92-17.74-12.57a1.41,1.41,0,0,1-.59-0.41,1.72,1.72,0,0,0-.93-0.39,1.49,1.49,0,0,1-.28-0.11l-0.1,0a13,13,0,0,0-12.85,1h0l-0.37.26a4.57,4.57,0,0,1-5.42,0l-0.37-.26h0a13,13,0,0,0-12.85-1l-0.1,0a1.49,1.49,0,0,1-.28.11,1.72,1.72,0,0,0-.93.39,2.58,2.58,0,0,1-.59.41c-6.2,3.48-11.27,9.73-17.74,12.57,0,0-2.53,1.27-1.86-4.14h0a12.7,12.7,0,0,1,.71-3.13,1.4,1.4,0,0,0-2.33-1.46,12.59,12.59,0,0,0-3.42,8.28c0,0.06,0,.11,0,0.17a11.52,11.52,0,0,0,3.42,7.84,17,17,0,0,0,4.93,3.33v0.1a23.49,23.49,0,0,0,7.82,2.14,1.13,1.13,0,0,1,.09,2.24,22.15,22.15,0,0,1-7.3.27L150.92,416a1.61,1.61,0,0,0,0,.4l0.34,2.19h0l4,25.88a1.31,1.31,0,0,0,2.6.14l1.27-5.21a1.31,1.31,0,0,1,2.6.14l4.8,31.61a1.31,1.31,0,0,0,2.62,0l0.53-3.37a1.31,1.31,0,0,1,2.6-.1l9.31,41.86a1.3,1.3,0,0,0,2.58,0l9.31-41.86a1.31,1.31,0,0,1,2.6.1l0.53,3.37a1.31,1.31,0,0,0,2.62,0l4.8-31.61a1.31,1.31,0,0,1,2.6-.14l1.27,5.21a1.31,1.31,0,0,0,2.6-.14l3.64-23.58h0l0.69-4.49a1.61,1.61,0,0,0,0-.61l1.46-11.18a22.08,22.08,0,0,1-7.43-.25,1.13,1.13,0,0,1,.09-2.24,23.45,23.45,0,0,0,7.95-2.2v-0.08a17,17,0,0,0,5-3.38A11.52,11.52,0,0,0,225.35,388.64Z" transform="translate(-122.43 -251.67)" style="fill:#19305b"/><path d="M220.69,324.32a1,1,0,0,1-.77-0.83c-3.7-28.39-9-40.81-12.33-46.06-1.57-2.77-5.07-10.35,2-12.62l0.14,0a18.57,18.57,0,0,1,2.33-.32h0a35.74,35.74,0,0,1,5,.24,1,1,0,0,0,1-1.53c-9.16-12.26-23.29-10.49-23.29-10.49-16.07,1.25-27.23,13.62-34.54,26.31a159.62,159.62,0,0,0-11.47,28.55v0c-1.92,6.39-3.28,12.12-4.21,16.55l-0.08,0L143.1,330a1.07,1.07,0,0,1-2.06,0l-0.66-3.5a1.06,1.06,0,0,0-1.39-.75c-10.26,3.26-16.56,7.68-16.56,12.54,0,10,26.78,18.17,59.82,18.17s59.82-8.13,59.82-18.17C242.07,332.65,233.76,327.65,220.69,324.32Zm-21.46-65.7h0c-14.72,1.14-25,12.48-31.65,24.11a146.23,146.23,0,0,0-10.51,26.16v0c-1.76,5.86-3,11.11-3.86,15.17h0a58.67,58.67,0,0,0-.88,5.94,0.8,0.8,0,0,1-.79.72h-2.93a0.8,0.8,0,0,1-.78-1c0.67-3.31,1.42-6,1.42-6l0.31-1.3,0.07,0c0.85-4.06,2.1-9.31,3.86-15.17v0a146.24,146.24,0,0,1,10.51-26.16c6.7-11.62,16.93-23,31.65-24.11a19.85,19.85,0,0,1,3.6,0A0.8,0.8,0,0,1,199.23,258.61Z" transform="translate(-122.43 -251.67)" style="fill:#19305b"/><path d="M223.26,356.07s-3.8-3.34-7.92-4.24A28.69,28.69,0,0,0,209,351s-1.54.51-4.23,3.3a11,11,0,0,0-2.84,4.19,6.45,6.45,0,0,0,.24,5.32v0.09a0.78,0.78,0,0,1-.84.9,18.48,18.48,0,0,1-6.15-2.14,19.61,19.61,0,0,1,3.4-5.75c2.92-3.54,9-6,9-6a19.85,19.85,0,0,0-9.94,4.8,23.06,23.06,0,0,0-6,8.28,38.24,38.24,0,0,0,9.22,3.47,15.78,15.78,0,0,0,7.81-.12,7,7,0,0,0,5.57-5.19,7.79,7.79,0,0,0-1.84-6.12c-0.1-.37-0.09-0.83,1-0.76a17.53,17.53,0,0,1,6.93,2.36,26.69,26.69,0,0,1-3.77,5.85c-3.84,3.76-5.44,4.17-5.44,4.17s2.15,1.22,6.78-2.75A15.79,15.79,0,0,0,223.26,356.07Z" transform="translate(-122.43 -251.67)" style="fill:#19305b"/><path d="M142.26,356.07s3.8-3.34,7.92-4.24a28.69,28.69,0,0,1,6.35-.81s1.54,0.51,4.23,3.3a11,11,0,0,1,2.84,4.19,6.45,6.45,0,0,1-.24,5.32v0.09a0.78,0.78,0,0,0,.84.9,18.48,18.48,0,0,0,6.15-2.14,19.61,19.61,0,0,0-3.4-5.75c-2.92-3.54-9-6-9-6a19.85,19.85,0,0,1,9.94,4.8,23.06,23.06,0,0,1,6,8.28,38.24,38.24,0,0,1-9.22,3.47,15.78,15.78,0,0,1-7.81-.12,7,7,0,0,1-5.57-5.19A7.79,7.79,0,0,1,153.1,356c0.1-.37.09-0.83-1-0.76a17.53,17.53,0,0,0-6.93,2.36,26.69,26.69,0,0,0,3.77,5.85,51.67,51.67,0,0,0,5.13,4.66s-1.84.74-6.47-3.23A15.79,15.79,0,0,1,142.26,356.07Z" transform="translate(-122.43 -251.67)" style="fill:#19305b"/></svg>