<svg xmlns="http://www.w3.org/2000/svg" viewBox="0 0 781.54 295.62">
    <title>wizard-spots</title><path d="M146.26,112.72h11.08l6.3,42.31L179,112.72h10.5l14.34,40.66,6.67-40.66h10.75l-11.08,58.91H199.77l-16.19-46.22-17.38,46.22H155.94Z" style="fill:#19305b"/><path d="M239.77,112.72v58.91H228.85V112.72h10.92Z" style="fill:#19305b"/><path d="M294.76,112.72v9.47l-31.35,40h31.35v9.48H251.09v-9.48l32.71-40H251.92v-9.47h42.84Z" style="fill:#19305b"/><path d="M309.67,171.63h-11.2l25-58.91h11.74l25.54,58.91H349l-6.71-16.07H322.73l3.75-9.47h11.86L329.07,124Z" style="fill:#19305b"/><path d="M368,171.54V112.72h26.78q18,0,18,15.78,0,10.67-14,17.67l18.66,25.46H403.63L385.72,146v-5q15.65-2.68,15.65-12.15,0-6.51-7.33-6.51h-15v49.23H368Z" style="fill:#19305b"/><path d="M422.54,171.63V112.72h23.07q29.25,0,29.25,27.85,0,31.06-29.25,31.06H422.54Zm23.07-9.48q18.33,0,18.33-21.58,0-18.37-18.33-18.37H433.46v40h12.15Z" style="fill:#19305b"/><path
        d="M501.63,169.15v-9.89a57.1,57.1,0,0,0,20,3.3q13.55,0,13.55-9.06,0-6.59-8.32-6.59h-9.23q-18.08,0-18.08-16.48,0-18.12,25.75-18.12a60.19,60.19,0,0,1,18.74,2.88v9.89a53.33,53.33,0,0,0-18.74-3.29q-14.83,0-14.83,8.65,0,6.59,7.17,6.59h9.23q19.24,0,19.24,16.48,0,18.54-24.47,18.54A64.5,64.5,0,0,1,501.63,169.15Z"
        style="fill:#19305b"/><path d="M555.39,171.63V112.72h26.36q18,0,18,16.6,0,18-24.68,21.79l-1.57-9.72q14.83-2.68,14.83-11.74,0-7.33-7.33-7.33H566.31v49.31H555.39Z" style="fill:#19305b"/><path d="M604.95,142.25q0-29.95,29.58-29.95,29.12,0,29.12,29.95,0,29.78-29.12,29.78Q606.27,172,604.95,142.25Zm29.58,20.31q17.8,0,17.8-20.56,0-20.23-17.8-20.23-18.25,0-18.25,20.23Q616.28,162.56,634.52,162.56Z" style="fill:#19305b"/><path d="M712.46,112.72v9.47H695.57v49.43H684.66V122.19H667.77v-9.47h44.7Z" style="fill:#19305b"/><path
        d="M717.61,169.15v-9.89a57.1,57.1,0,0,0,20,3.3q13.55,0,13.55-9.06,0-6.59-8.32-6.59h-9.23q-18.08,0-18.08-16.48,0-18.12,25.75-18.12A60.18,60.18,0,0,1,760,115.19v9.89a53.32,53.32,0,0,0-18.74-3.29q-14.83,0-14.83,8.65,0,6.59,7.17,6.59h9.23q19.24,0,19.24,16.48,0,18.54-24.47,18.54A64.5,64.5,0,0,1,717.61,169.15Z"
        style="fill:#19305b"/><path d="M249.43,197.25h2.13l3,5.16,2.83-5.16h2.06l-3.94,7v3.74h-2v-3.74Z" style="fill:#ffffff"/><path d="M267.38,202.61q0-5.44,5.37-5.44t5.29,5.44q0,5.41-5.29,5.41Q267.62,208,267.38,202.61Zm5.37,3.69q3.23,0,3.23-3.73t-3.23-3.67q-3.31,0-3.31,3.67T272.75,206.3Z" style="fill:#ffffff"/><path d="M287.57,203.74v-6.5h2v6.5a2.62,2.62,0,0,0,5.24,0v-6.5h2v6.5q0,4.28-4.6,4.28T287.57,203.74Z" style="fill:#ffffff"/><path d="M306.68,207.93V197.25h4.86q3.28,0,3.28,2.87,0,1.94-2.55,3.21l3.39,4.62h-2.5l-3.25-4.66v-0.91q2.84-.49,2.84-2.21a1.12,1.12,0,0,0-1.33-1.18H308.7v8.94h-2Z" style="fill:#ffffff"/><path d="M334.43,197.25h2l1.14,7.68,2.78-7.68h1.91l2.6,7.39,1.21-7.39h2l-2,10.7h-1.89l-2.94-8.4-3.16,8.4h-1.86Z" style="fill:#ffffff"/><path d="M359.08,197.25v10.7h-2v-10.7h2Z" style="fill:#ffffff"/><path
        d="M368.8,207.5v-1.8a10.36,10.36,0,0,0,3.64.6q2.46,0,2.46-1.65,0-1.2-1.51-1.2h-1.68q-3.28,0-3.29-3,0-3.29,4.68-3.29a10.92,10.92,0,0,1,3.4.52v1.8a9.68,9.68,0,0,0-3.4-.6q-2.69,0-2.69,1.57a1.11,1.11,0,0,0,1.3,1.2h1.68q3.49,0,3.49,3,0,3.37-4.44,3.37A11.7,11.7,0,0,1,368.8,207.5Z"
        style="fill:#ffffff"/><path d="M386.22,207.95v-10.7h2v4.42h5.27v-4.42h2v10.7h-2v-4.56h-5.27v4.56h-2Z" style="fill:#ffffff"/><path d="M418.38,197.25v10.7h-2v-10.7h2Z" style="fill:#ffffff"/><path
        d="M428.1,207.5v-1.8a10.36,10.36,0,0,0,3.64.6q2.46,0,2.46-1.65,0-1.2-1.51-1.2H431q-3.28,0-3.29-3,0-3.29,4.68-3.29a10.92,10.92,0,0,1,3.41.52v1.8a9.68,9.68,0,0,0-3.41-.6q-2.69,0-2.69,1.57a1.11,1.11,0,0,0,1.3,1.2h1.68q3.5,0,3.5,3,0,3.37-4.45,3.37A11.7,11.7,0,0,1,428.1,207.5Z"
        style="fill:#ffffff"/><path d="M456.18,202.61q0-5.44,5.37-5.44t5.29,5.44q0,5.41-5.29,5.41Q456.42,208,456.18,202.61Zm5.37,3.69q3.23,0,3.23-3.73t-3.23-3.67q-3.31,0-3.31,3.67T461.56,206.3Z" style="fill:#ffffff"/><path d="M476.38,203.74v-6.5h2v6.5a2.62,2.62,0,0,0,5.24,0v-6.5h2v6.5q0,4.28-4.6,4.28T476.38,203.74Z" style="fill:#ffffff"/><path d="M495.49,207.93V197.25h4.86q3.28,0,3.28,2.87,0,1.94-2.55,3.21l3.39,4.62H502l-3.25-4.66v-0.91q2.84-.49,2.84-2.21a1.12,1.12,0,0,0-1.33-1.18h-2.72v8.94h-2Z" style="fill:#ffffff"/><path d="M532.63,207.5a8.83,8.83,0,0,1-3.14.52q-5.76,0-5.76-5.58,0-5.27,5.76-5.27a8.83,8.83,0,0,1,3.14.52v1.8a7.45,7.45,0,0,0-3-.6q-3.85,0-3.85,3.55,0,3.85,3.85,3.85a7.45,7.45,0,0,0,3-.6v1.8Z" style="fill:#ffffff"/><path d="M541.79,202.61q0-5.44,5.37-5.44t5.29,5.44q0,5.41-5.29,5.41Q542,208,541.79,202.61Zm5.37,3.69q3.23,0,3.23-3.73t-3.23-3.67q-3.31,0-3.31,3.67T547.16,206.3Z" style="fill:#ffffff"/><path d="M562,207.95v-10.7H564l3.63,8.12,3.55-8.12h2v10.7h-1.83V200.5l-2.9,7.45h-1.69l-3-7.45v7.45H562Z" style="fill:#ffffff"/><path d="M583.11,207.95v-10.7h2.06l3.63,8.12,3.55-8.12h2v10.7H592.5V200.5l-2.9,7.45h-1.69l-3-7.45v7.45h-1.83Z" style="fill:#ffffff"/><path d="M605.34,207.95h-2l4.54-10.7H610l4.64,10.7h-2.13L611.27,205h-3.55l0.68-1.72h2.15l-1.68-4Z" style="fill:#ffffff"/><path d="M623.59,207.95v-10.7h2l5.65,7.8v-7.8h1.91v10.7h-2l-5.65-8v8h-1.91Z" style="fill:#ffffff"/><path d="M643,207.95v-10.7h4.19q5.31,0,5.31,5.06,0,5.64-5.31,5.64H643Zm4.19-1.72q3.33,0,3.33-3.92,0-3.34-3.33-3.34H645v7.26h2.21Z" style="fill:#ffffff"/><polygon points="114.61 20.56 115.46 22.3 117.38 22.57 115.99 23.93 116.32 25.84 114.61 24.93 112.89 25.84 113.22 23.93 111.83 22.57 113.75 22.3 114.61 20.56" style="fill:#ef4136"/><polygon points="123.38 50.57 125.03 53.93 128.73 54.46 126.05 57.07 126.69 60.76 123.38 59.02 120.07 60.76 120.7 57.07 118.02 54.46 121.72 53.93 123.38 50.57" style="fill:#ffffff"/><polygon points="113.45 38.29 114.86 41.15 118.02 41.61 115.74 43.84 116.28 46.98 113.45 45.5 110.63 46.98 111.17 43.84 108.88 41.61 112.04 41.15 113.45 38.29" style="fill:#78529c"/><polygon points="131.22 28.38 133.24 32.47 137.76 33.13 134.49 36.31 135.26 40.81 131.22 38.69 127.18 40.81 127.95 36.31 124.68 33.13 129.2 32.47 131.22 28.38" style="fill:#8cc244"/><path
        d="M119.78,157.53c0-.06,0-0.11,0-0.17a12.59,12.59,0,0,0-3.42-8.28,1.4,1.4,0,0,0-2.33,1.46,12.7,12.7,0,0,1,.71,3.13h0c0.67,5.4-1.86,4.14-1.86,4.14-6.64-3.87-11.85-10.92-17.74-12.57a1.41,1.41,0,0,1-.59-0.41,1.72,1.72,0,0,0-.93-0.39,1.49,1.49,0,0,1-.28-0.11l-0.1,0a13,13,0,0,0-12.85,1h0l-0.37.26a4.57,4.57,0,0,1-5.42,0l-0.37-.26h0a13,13,0,0,0-12.85-1l-0.1,0a1.49,1.49,0,0,1-.28.11,1.72,1.72,0,0,0-.93.39,2.58,2.58,0,0,1-.59.41c-6.2,3.48-11.27,9.73-17.74,12.57,0,0-2.53,1.27-1.86-4.14h0a12.7,12.7,0,0,1,.71-3.13,1.4,1.4,0,0,0-2.33-1.46,12.59,12.59,0,0,0-3.42,8.28c0,0.06,0,.11,0,0.17a11.52,11.52,0,0,0,3.42,7.84,17,17,0,0,0,4.93,3.33v0.1A23.49,23.49,0,0,0,51,170.94a1.13,1.13,0,0,1,.09,2.24,22.15,22.15,0,0,1-7.3.27l1.53,11.46a1.61,1.61,0,0,0,0,.4l0.34,2.19h0l4,25.88a1.31,1.31,0,0,0,2.6.14l1.27-5.21a1.31,1.31,0,0,1,2.6.14L60.95,240a1.31,1.31,0,0,0,2.62,0l0.53-3.37a1.31,1.31,0,0,1,2.6-.1L76,278.44a1.3,1.3,0,0,0,2.58,0l9.31-41.86a1.31,1.31,0,0,1,2.6.1L91,240a1.31,1.31,0,0,0,2.62,0l4.8-31.61a1.31,1.31,0,0,1,2.6-.14l1.27,5.21a1.31,1.31,0,0,0,2.6-.14l3.64-23.58h0l0.69-4.49a1.61,1.61,0,0,0,0-.61l1.46-11.18a22.08,22.08,0,0,1-7.43-.25,1.13,1.13,0,0,1,.09-2.24,23.45,23.45,0,0,0,7.95-2.2v-0.08a17,17,0,0,0,5-3.38A11.52,11.52,0,0,0,119.78,157.53Z"
        style="fill:#19305b"/><path
        d="M115.11,93.2a1,1,0,0,1-.77-0.83c-3.7-28.39-9-40.81-12.33-46.06-1.57-2.77-5.07-10.35,2-12.62l0.14,0a18.57,18.57,0,0,1,2.33-.32h0a35.74,35.74,0,0,1,5,.24,1,1,0,0,0,1-1.53c-9.16-12.26-23.29-10.49-23.29-10.49C73.17,22.81,62,35.18,54.69,47.87A159.62,159.62,0,0,0,43.22,76.42v0C41.29,82.85,39.93,88.58,39,93l-0.08,0-1.4,5.85a1.07,1.07,0,0,1-2.06,0l-0.66-3.5a1.06,1.06,0,0,0-1.39-.75c-10.26,3.26-16.56,7.68-16.56,12.54,0,10,26.78,18.17,59.82,18.17s59.82-8.13,59.82-18.17C136.49,101.53,128.18,96.54,115.11,93.2ZM93.65,27.5h0C78.93,28.64,68.7,40,62,51.61A146.23,146.23,0,0,0,51.49,77.77v0c-1.76,5.86-3,11.11-3.86,15.17h0a58.67,58.67,0,0,0-.88,5.94,0.8,0.8,0,0,1-.79.72H43a0.8,0.8,0,0,1-.78-1c0.67-3.31,1.42-6,1.42-6l0.31-1.3,0.07,0c0.85-4.06,2.1-9.31,3.86-15.17v0A146.24,146.24,0,0,1,58.37,50c6.7-11.62,16.93-23,31.65-24.11a19.85,19.85,0,0,1,3.6,0A0.8,0.8,0,0,1,93.65,27.5Z"
        style="fill:#19305b"/><path
        d="M117.68,125s-3.8-3.34-7.92-4.24a28.69,28.69,0,0,0-6.35-.81s-1.54.51-4.23,3.3a11,11,0,0,0-2.84,4.19,6.45,6.45,0,0,0,.24,5.32v0.09a0.78,0.78,0,0,1-.84.9,18.48,18.48,0,0,1-6.15-2.14,19.61,19.61,0,0,1,3.4-5.75c2.92-3.54,9-6,9-6a19.85,19.85,0,0,0-9.94,4.8,23.06,23.06,0,0,0-6,8.28,38.24,38.24,0,0,0,9.22,3.47,15.78,15.78,0,0,0,7.81-.12,7,7,0,0,0,5.57-5.19,7.79,7.79,0,0,0-1.84-6.12c-0.1-.37-0.09-0.83,1-0.76a17.53,17.53,0,0,1,6.93,2.36,26.69,26.69,0,0,1-3.77,5.85c-3.84,3.76-5.44,4.17-5.44,4.17s2.15,1.22,6.78-2.75A15.79,15.79,0,0,0,117.68,125Z"
        style="fill:#19305b"/><path
        d="M36.69,125s3.8-3.34,7.92-4.24A28.69,28.69,0,0,1,51,119.9s1.54,0.51,4.23,3.3A11,11,0,0,1,58,127.4a6.45,6.45,0,0,1-.24,5.32v0.09a0.78,0.78,0,0,0,.84.9,18.48,18.48,0,0,0,6.15-2.14,19.61,19.61,0,0,0-3.4-5.75c-2.92-3.54-9-6-9-6a19.85,19.85,0,0,1,9.94,4.8,23.06,23.06,0,0,1,6,8.28,38.24,38.24,0,0,1-9.22,3.47,15.78,15.78,0,0,1-7.81-.12A7,7,0,0,1,45.68,131a7.79,7.79,0,0,1,1.84-6.12c0.1-.37.09-0.83-1-0.76a17.53,17.53,0,0,0-6.93,2.36,26.69,26.69,0,0,0,3.77,5.85A51.67,51.67,0,0,0,48.49,137s-1.84.74-6.47-3.23A15.79,15.79,0,0,1,36.69,125Z"
        style="fill:#19305b"/></svg>
