<svg id="Layer_1" data-name="Layer 1" xmlns="http://www.w3.org/2000/svg" viewBox="0 0 615.84 95.72"><title>text</title><path d="M251.83,343.83h11.08l6.3,42.31,15.32-42.31H295l14.34,40.66,6.67-40.66H326.8l-11.08,58.91H305.34l-16.19-46.22-17.38,46.22H261.51Z" transform="translate(-251.83 -343.42)" style="fill:#19305b"/><path d="M345.34,343.83v58.91H334.43V343.83h10.92Z" transform="translate(-251.83 -343.42)" style="fill:#19305b"/><path d="M400.33,343.83v9.47l-31.35,40h31.35v9.48H356.67v-9.48l32.71-40H357.49v-9.47h42.84Z" transform="translate(-251.83 -343.42)" style="fill:#19305b"/><path d="M415.25,402.74H404l25-58.91h11.74l25.54,58.91H454.59l-6.71-16.07H428.31l3.75-9.47h11.86l-9.27-22.12Z" transform="translate(-251.83 -343.42)" style="fill:#19305b"/><path d="M473.54,402.66V343.83h26.78q18,0,18,15.78,0,10.67-14,17.67L523,402.74H509.21l-17.92-25.66v-5q15.65-2.68,15.65-12.15,0-6.51-7.33-6.51h-15v49.23H473.54Z" transform="translate(-251.83 -343.42)" style="fill:#19305b"/><path d="M528.12,402.74V343.83h23.07q29.25,0,29.25,27.85,0,31.06-29.25,31.06H528.12Zm23.07-9.48q18.33,0,18.33-21.58,0-18.37-18.33-18.37H539v40h12.15Z" transform="translate(-251.83 -343.42)" style="fill:#19305b"/><path d="M607.21,400.27v-9.89a57.1,57.1,0,0,0,20,3.3q13.55,0,13.55-9.06,0-6.59-8.32-6.59h-9.23q-18.08,0-18.08-16.48,0-18.12,25.75-18.12a60.19,60.19,0,0,1,18.74,2.88v9.89a53.33,53.33,0,0,0-18.74-3.29q-14.83,0-14.83,8.65,0,6.59,7.17,6.59h9.23q19.24,0,19.24,16.48,0,18.54-24.47,18.54A64.5,64.5,0,0,1,607.21,400.27Z" transform="translate(-251.83 -343.42)" style="fill:#19305b"/><path d="M661,402.74V343.83h26.36q18,0,18,16.6,0,18-24.68,21.79l-1.57-9.72Q694,369.83,694,360.76q0-7.33-7.33-7.33H671.88v49.31H661Z" transform="translate(-251.83 -343.42)" style="fill:#19305b"/><path d="M710.52,373.37q0-29.95,29.58-29.95,29.12,0,29.12,29.95,0,29.78-29.12,29.78Q711.84,403.15,710.52,373.37Zm29.58,20.31q17.8,0,17.8-20.56,0-20.23-17.8-20.23-18.25,0-18.25,20.23Q721.85,393.68,740.1,393.68Z" transform="translate(-251.83 -343.42)" style="fill:#19305b"/><path d="M818,343.83v9.47H801.15v49.43H790.23V353.31H773.34v-9.47H818Z" transform="translate(-251.83 -343.42)" style="fill:#19305b"/><path d="M823.19,400.27v-9.89a57.1,57.1,0,0,0,20,3.3q13.55,0,13.55-9.06,0-6.59-8.32-6.59h-9.23q-18.08,0-18.08-16.48,0-18.12,25.75-18.12a60.18,60.18,0,0,1,18.74,2.88v9.89a53.32,53.32,0,0,0-18.74-3.29q-14.83,0-14.83,8.65,0,6.59,7.17,6.59h9.23q19.24,0,19.24,16.48,0,18.54-24.47,18.54A64.49,64.49,0,0,1,823.19,400.27Z" transform="translate(-251.83 -343.42)" style="fill:#19305b"/><path d="M355,428.36h2.13l3,5.16,2.83-5.16H365l-3.94,7v3.74h-2v-3.74Z" transform="translate(-251.83 -343.42)" style="fill:#1cbde2"/><path d="M373,433.73q0-5.44,5.37-5.44t5.29,5.44q0,5.41-5.29,5.41Q373.19,439.14,373,433.73Zm5.37,3.69q3.23,0,3.23-3.73T378.33,430q-3.31,0-3.31,3.67T378.33,437.42Z" transform="translate(-251.83 -343.42)" style="fill:#1cbde2"/><path d="M393.15,434.86v-6.5h2v6.5a2.62,2.62,0,0,0,5.24,0v-6.5h2v6.5q0,4.28-4.6,4.28T393.15,434.86Z" transform="translate(-251.83 -343.42)" style="fill:#1cbde2"/><path d="M412.26,439V428.36h4.86q3.28,0,3.28,2.87,0,1.94-2.55,3.21l3.39,4.62h-2.5l-3.25-4.66V433.5q2.84-.49,2.84-2.21a1.12,1.12,0,0,0-1.33-1.18h-2.72V439h-2Z" transform="translate(-251.83 -343.42)" style="fill:#1cbde2"/><path d="M440,428.36h2l1.14,7.68,2.78-7.68h1.91l2.6,7.39,1.21-7.39h2l-2,10.7h-1.89l-2.94-8.4-3.16,8.4h-1.86Z" transform="translate(-251.83 -343.42)" style="fill:#1cbde2"/><path d="M464.65,428.36v10.7h-2v-10.7h2Z" transform="translate(-251.83 -343.42)" style="fill:#1cbde2"/><path d="M474.37,438.61v-1.8a10.36,10.36,0,0,0,3.64.6q2.46,0,2.46-1.65,0-1.2-1.51-1.2h-1.68q-3.28,0-3.29-3,0-3.29,4.68-3.29a10.92,10.92,0,0,1,3.4.52v1.8a9.68,9.68,0,0,0-3.4-.6q-2.69,0-2.69,1.57a1.11,1.11,0,0,0,1.3,1.2H479q3.49,0,3.49,3,0,3.37-4.44,3.37A11.7,11.7,0,0,1,474.37,438.61Z" transform="translate(-251.83 -343.42)" style="fill:#1cbde2"/><path d="M491.8,439.06v-10.7h2v4.42h5.27v-4.42h2v10.7h-2V434.5h-5.27v4.56h-2Z" transform="translate(-251.83 -343.42)" style="fill:#1cbde2"/><path d="M524,428.36v10.7h-2v-10.7h2Z" transform="translate(-251.83 -343.42)" style="fill:#1cbde2"/><path d="M533.68,438.61v-1.8a10.36,10.36,0,0,0,3.64.6q2.46,0,2.46-1.65,0-1.2-1.51-1.2h-1.68q-3.28,0-3.29-3,0-3.29,4.68-3.29a10.92,10.92,0,0,1,3.41.52v1.8A9.68,9.68,0,0,0,538,430q-2.69,0-2.69,1.57a1.11,1.11,0,0,0,1.3,1.2h1.68q3.5,0,3.5,3,0,3.37-4.45,3.37A11.7,11.7,0,0,1,533.68,438.61Z" transform="translate(-251.83 -343.42)" style="fill:#1cbde2"/><path d="M561.76,433.73q0-5.44,5.37-5.44t5.29,5.44q0,5.41-5.29,5.41Q562,439.14,561.76,433.73Zm5.37,3.69q3.23,0,3.23-3.73T567.13,430q-3.31,0-3.31,3.67T567.13,437.42Z" transform="translate(-251.83 -343.42)" style="fill:#1cbde2"/><path d="M582,434.86v-6.5h2v6.5a2.62,2.62,0,0,0,5.24,0v-6.5h2v6.5q0,4.28-4.6,4.28T582,434.86Z" transform="translate(-251.83 -343.42)" style="fill:#1cbde2"/><path d="M601.07,439V428.36h4.86q3.28,0,3.28,2.87,0,1.94-2.55,3.21l3.39,4.62h-2.5l-3.25-4.66V433.5q2.84-.49,2.84-2.21a1.12,1.12,0,0,0-1.33-1.18h-2.72V439h-2Z" transform="translate(-251.83 -343.42)" style="fill:#1cbde2"/><path d="M638.2,438.61a8.83,8.83,0,0,1-3.14.52q-5.76,0-5.76-5.58,0-5.27,5.76-5.27a8.83,8.83,0,0,1,3.14.52v1.8a7.45,7.45,0,0,0-3-.6q-3.85,0-3.85,3.55,0,3.85,3.85,3.85a7.45,7.45,0,0,0,3-.6v1.8Z" transform="translate(-251.83 -343.42)" style="fill:#1cbde2"/><path d="M647.36,433.73q0-5.44,5.37-5.44t5.29,5.44q0,5.41-5.29,5.41Q647.6,439.14,647.36,433.73Zm5.37,3.69q3.23,0,3.23-3.73T652.73,430q-3.31,0-3.31,3.67T652.73,437.42Z" transform="translate(-251.83 -343.42)" style="fill:#1cbde2"/><path d="M667.56,439.06v-10.7h2.06l3.63,8.12,3.55-8.12h2v10.7h-1.83v-7.45l-2.9,7.45h-1.69l-3-7.45v7.45h-1.83Z" transform="translate(-251.83 -343.42)" style="fill:#1cbde2"/><path d="M688.69,439.06v-10.7h2.06l3.63,8.12,3.55-8.12h2v10.7h-1.83v-7.45l-2.9,7.45h-1.69l-3-7.45v7.45h-1.83Z" transform="translate(-251.83 -343.42)" style="fill:#1cbde2"/><path d="M710.92,439.06h-2l4.54-10.7h2.13l4.64,10.7h-2.13l-1.22-2.92h-3.55l0.68-1.72h2.15l-1.68-4Z" transform="translate(-251.83 -343.42)" style="fill:#1cbde2"/><path d="M729.17,439.06v-10.7h2l5.65,7.8v-7.8h1.91v10.7h-2l-5.65-8v8h-1.91Z" transform="translate(-251.83 -343.42)" style="fill:#1cbde2"/><path d="M748.61,439.06v-10.7h4.19q5.31,0,5.31,5.06,0,5.64-5.31,5.64h-4.19Zm4.19-1.72q3.33,0,3.33-3.92,0-3.34-3.33-3.34H750.6v7.26h2.21Z" transform="translate(-251.83 -343.42)" style="fill:#1cbde2"/></svg>