<svg xmlns="http://www.w3.org/2000/svg" viewBox="0 0 760.93 152.25"><title>wizard-spots</title><path d="M14.81,19.8H28L35.45,70,53.64,19.8H66.11l17,48.27L91.05,19.8h12.76L90.66,89.73H78.34L59.12,34.86,38.48,89.73H26.3Z" style="fill:#19305b"/><path d="M125.82,19.8V89.73h-13V19.8h13Z" style="fill:#19305b"/><path d="M191.11,19.8V31L153.89,78.48h37.22V89.73H139.27V78.48L178.1,31H140.25V19.8h50.86Z" style="fill:#19305b"/><path d="M208.81,89.73h-13.3L225.19,19.8h13.94l30.32,69.93H255.52l-8-19.07H224.32l4.45-11.25h14.08l-11-26.26Z" style="fill:#19305b"/><path d="M278,89.63V19.8H309.8q21.42,0,21.42,18.73,0,12.67-16.68,21L336.7,89.73H320.36L299.09,59.26V53.35q18.58-3.18,18.58-14.43,0-7.73-8.71-7.73H291.22V89.63H278Z" style="fill:#19305b"/><path d="M342.81,89.73V19.8H370.2q34.72,0,34.72,33.06,0,36.87-34.72,36.87H342.81ZM370.2,78.48Q392,78.48,392,52.86,392,31,370.2,31H355.77V78.48H370.2Z" style="fill:#19305b"/><path d="M436.7,86.8V75.06A67.79,67.79,0,0,0,460.47,79q16.09,0,16.09-10.76,0-7.82-9.88-7.82h-11q-21.47,0-21.47-19.56,0-21.52,30.56-21.52a71.45,71.45,0,0,1,22.25,3.42V34.47a63.31,63.31,0,0,0-22.25-3.91q-17.61,0-17.61,10.27,0,7.82,8.51,7.82h11q22.84,0,22.84,19.56,0,22-29,22A76.57,76.57,0,0,1,436.7,86.8Z" style="fill:#19305b"/><path d="M500.52,89.73V19.8h31.3q21.42,0,21.42,19.71,0,21.37-29.29,25.87l-1.86-11.54q17.61-3.18,17.61-13.94,0-8.7-8.7-8.7H513.48V89.73h-13Z" style="fill:#19305b"/><path d="M559.35,54.86q0-35.55,35.11-35.55Q629,19.31,629,54.86q0,35.36-34.57,35.36Q560.92,90.22,559.35,54.86ZM594.47,79q21.13,0,21.13-24.4,0-24-21.13-24-21.66,0-21.66,24Q572.8,79,594.47,79Z" style="fill:#19305b"/><path d="M687,19.8V31H666.94V89.73H654V31H633.93V19.8H687Z" style="fill:#19305b"/><path d="M693.1,86.8V75.06A67.79,67.79,0,0,0,716.87,79Q733,79,733,68.21q0-7.82-9.88-7.82h-11q-21.47,0-21.47-19.56,0-21.52,30.56-21.52a71.44,71.44,0,0,1,22.25,3.42V34.47a63.3,63.3,0,0,0-22.25-3.91q-17.61,0-17.61,10.27,0,7.82,8.51,7.82h11q22.84,0,22.84,19.56,0,22-29,22A76.57,76.57,0,0,1,693.1,86.8Z" style="fill:#19305b"/><path d="M137.29,120.15h2.53l3.57,6.12,3.36-6.12h2.44l-4.67,8.26v4.44h-2.35v-4.44Z" style="fill:#1cbde2"/><path d="M158.6,126.52q0-6.46,6.38-6.46t6.28,6.46q0,6.42-6.28,6.42Q158.89,132.94,158.6,126.52ZM165,130.9q3.84,0,3.84-4.43T165,122.1q-3.94,0-3.93,4.36T165,130.9Z" style="fill:#1cbde2"/><path d="M182.58,127.86v-7.71h2.35v7.71q0,3,3.11,3t3.11-3v-7.71h2.35v7.71q0,5.08-5.46,5.08T182.58,127.86Z" style="fill:#1cbde2"/><path d="M205.27,132.83V120.15H211q3.89,0,3.89,3.4,0,2.3-3,3.81l4,5.49h-3l-3.86-5.53v-1.07q3.38-.58,3.38-2.62a1.33,1.33,0,0,0-1.58-1.4h-3.22v10.62h-2.4Z" style="fill:#1cbde2"/><path d="M238.2,120.15h2.39l1.36,9.12,3.3-9.12h2.26l3.09,8.77,1.44-8.77h2.32L252,132.85h-2.24l-3.49-10-3.75,10h-2.21Z" style="fill:#1cbde2"/><path d="M267.47,120.15v12.7h-2.35v-12.7h2.35Z" style="fill:#1cbde2"/><path d="M279,132.32v-2.13a12.3,12.3,0,0,0,4.32.71q2.92,0,2.92-2,0-1.42-1.79-1.42h-2q-3.9,0-3.9-3.55,0-3.91,5.55-3.91a13,13,0,0,1,4,.62v2.13a11.49,11.49,0,0,0-4-.71q-3.2,0-3.2,1.87a1.31,1.31,0,0,0,1.55,1.42h2q4.15,0,4.15,3.55,0,4-5.28,4A13.89,13.89,0,0,1,279,132.32Z" style="fill:#1cbde2"/><path d="M299.69,132.85v-12.7H302v5.24h6.26v-5.24h2.35v12.7h-2.35v-5.42H302v5.42h-2.35Z" style="fill:#1cbde2"/><path d="M337.87,120.15v12.7h-2.35v-12.7h2.35Z" style="fill:#1cbde2"/><path d="M349.41,132.32v-2.13a12.3,12.3,0,0,0,4.32.71q2.92,0,2.92-2,0-1.42-1.79-1.42h-2q-3.9,0-3.9-3.55,0-3.91,5.55-3.91a13,13,0,0,1,4,.62v2.13a11.49,11.49,0,0,0-4-.71q-3.2,0-3.2,1.87a1.31,1.31,0,0,0,1.55,1.42h2q4.15,0,4.15,3.55,0,4-5.28,4A13.89,13.89,0,0,1,349.41,132.32Z" style="fill:#1cbde2"/><path d="M382.75,126.52q0-6.46,6.38-6.46t6.28,6.46q0,6.42-6.28,6.42Q383,132.94,382.75,126.52Zm6.38,4.38q3.84,0,3.84-4.43t-3.84-4.36q-3.94,0-3.93,4.36T389.13,130.9Z" style="fill:#1cbde2"/><path d="M406.72,127.86v-7.71h2.35v7.71q0,3,3.11,3t3.11-3v-7.71h2.35v7.71q0,5.08-5.46,5.08T406.72,127.86Z" style="fill:#1cbde2"/><path d="M429.41,132.83V120.15h5.77q3.89,0,3.89,3.4,0,2.3-3,3.81l4,5.49h-3l-3.86-5.53v-1.07q3.38-.58,3.38-2.62a1.33,1.33,0,0,0-1.58-1.4h-3.23v10.62h-2.4Z" style="fill:#1cbde2"/><path d="M473.5,132.32a10.48,10.48,0,0,1-3.73.62q-6.84,0-6.84-6.62,0-6.26,6.84-6.26a10.48,10.48,0,0,1,3.73.62v2.13a8.85,8.85,0,0,0-3.55-.71q-4.58,0-4.57,4.22,0,4.58,4.57,4.57a8.85,8.85,0,0,0,3.55-.71v2.13Z" style="fill:#1cbde2"/><path d="M484.37,126.52q0-6.46,6.38-6.46t6.28,6.46q0,6.42-6.28,6.42Q484.65,132.94,484.37,126.52Zm6.38,4.38q3.84,0,3.84-4.43t-3.84-4.36q-3.94,0-3.93,4.36T490.75,130.9Z" style="fill:#1cbde2"/><path d="M508.34,132.85v-12.7h2.44l4.31,9.64,4.22-9.64h2.35v12.7h-2.18V124L516,132.85h-2L510.52,124v8.85h-2.18Z" style="fill:#1cbde2"/><path d="M533.43,132.85v-12.7h2.44l4.31,9.64,4.22-9.64h2.35v12.7h-2.18V124l-3.45,8.85h-2L535.61,124v8.85h-2.18Z" style="fill:#1cbde2"/><path d="M559.82,132.85h-2.42l5.39-12.7h2.53l5.51,12.7H568.3l-1.45-3.46h-4.22l0.81-2H566l-2-4.77Z" style="fill:#1cbde2"/><path d="M581.49,132.85v-12.7h2.35l6.71,9.26v-9.26h2.27v12.7h-2.35l-6.71-9.45v9.45h-2.27Z" style="fill:#1cbde2"/><path d="M604.57,132.85v-12.7h5q6.31,0,6.31,6,0,6.7-6.31,6.7h-5Zm5-2q4,0,4-4.65,0-4-4-4h-2.62v8.62h2.62Z" style="fill:#1cbde2"/></svg>